<svg id="_レイヤー_2" xmlns="http://www.w3.org/2000/svg" viewBox="0 0 86.97 36.17"><defs><style>.cls-2{stroke-width:0;fill:#000}</style></defs><g id="header_footer"><path class="cls-2" d="M34.59 0v9.63L26.51 0h-3.77v8.81h4.99l8.07 9.65h3.77V0h-4.99zm7.57 0v18.46h11.82V14h-6.75v-2.64h6.28v-4.4h-6.28V4.43h6.59V0H42.16zm24.21 0l-2.8 5.04L60.77 0h-5.91l5.49 9.05-5.67 9.42h5.91l2.98-5.38 2.98 5.38h5.91l-5.67-9.42L72.28 0h-5.91z"/><path stroke-width="0" fill="#00bfd3" d="M17.76 10.66h9.97v4.67h-9.97z"/><path class="cls-2" d="M7.94 18.83c4.8 0 7.97-3.27 7.97-7.7V0h-5.06v10.81c0 2.03-1.13 3.3-2.9 3.3s-2.9-1.27-2.9-3.3V0H0v11.13c0 4.48 3.03 7.7 7.94 7.7M1.21 35.97v-5.79h7.3v5.79h1.21V23.69H8.51v5.42h-7.3v-5.42H0v12.28h1.21zm10.82-6.13c0 3.54 2.81 6.33 6.37 6.33s6.37-2.79 6.37-6.33-2.77-6.33-6.37-6.33-6.37 2.79-6.37 6.33m1.2 0c0-2.93 2.3-5.23 5.17-5.23s5.17 2.3 5.17 5.23-2.3 5.23-5.17 5.23-5.17-2.33-5.17-5.23m13.85-6.14v12.28h6.72v-1.09h-5.51V23.7h-1.21zm12.54 12.27c3.65 0 6.35-2.58 6.35-6.14s-2.7-6.14-6.35-6.14H35.9v12.28h3.72zm-2.5-1.1V24.78h2.53c2.89 0 5.12 2.16 5.12 5.05s-2.23 5.03-5.12 5.03h-2.53zM49.5 23.7h-1.21v12.28h1.21V23.7zm2.98 12.27h1.21v-9.98l8.1 9.98h.86V23.69h-1.19v9.96l-8.1-9.96h-.88v12.28zm12.49-6.15c0 3.56 2.77 6.35 6.28 6.35s6.21-2.75 6.21-6.26v-.46H71.2v1.09h5.1c-.25 2.53-2.26 4.49-5.05 4.49s-5.05-2.35-5.05-5.21 2.3-5.17 5.16-5.17c1.84 0 3.44.95 4.28 2.4l1.03-.6c-1.07-1.81-3-2.95-5.37-2.95-3.54 0-6.33 2.77-6.33 6.31m13.77 3.52c.58 1.7 2.14 2.84 4.26 2.84 2.35 0 3.96-1.32 3.96-3.4 0-4.26-6.53-2.84-6.53-6.05 0-1.32 1.02-2.18 2.58-2.18 1.39 0 2.35.7 2.82 1.98l.95-.54c-.63-1.6-1.98-2.47-3.82-2.47-2.11 0-3.75 1.17-3.75 3.25 0 4.19 6.53 2.7 6.53 6.05 0 1.4-1.07 2.33-2.74 2.33-1.56 0-2.81-.89-3.3-2.3l-.96.49zM72.73 0v4.46h4.58v14h5.07v-14h4.59V0H72.73z"/></g></svg>