<svg fill="none" height="80" viewBox="0 0 435 80" width="435" xmlns="http://www.w3.org/2000/svg"><path clip-rule="evenodd" d="m292.56 32.3018c-.932 0-1.686.7548-1.686 1.6867v9.2774c0 .9319.754 1.6867 1.686 1.6867h17.706c.931 0 1.686-.7548 1.686-1.6867v-9.2774c0-.9319-.755-1.6867-1.686-1.6867zm85.728-28.67556h-12.444c-.982 0-1.875.56807-2.292 1.46166l-9.858 21.1279-9.859-21.1279c-.414-.89359-1.309-1.46166-2.291-1.46166h-12.444c-1.273 0-2.085 1.35635-1.486 2.48052l17.564 32.94174-17.564 32.9425c-.599 1.1242.213 2.4805 1.486 2.4805h12.444c.982 0 1.877-.5681 2.291-1.4617l9.859-21.1311 9.858 21.1311c.417.8936 1.31 1.4617 2.292 1.4617h12.444c1.272 0 2.088-1.3563 1.485-2.4805l-17.564-32.9417 17.564-32.94254c.603-1.12417-.213-2.48052-1.485-2.48052zm-65.492 0h-38.786c-1.397 0-2.529 1.13295-2.529 2.52999v65.78527c0 1.3971 1.132 2.53 2.529 2.53h38.786c.931 0 1.686-.7556 1.686-1.6866v-9.2775c0-.9319-.755-1.6866-1.686-1.6866h-26.138v-45.5438h26.138c.931 0 1.686-.7548 1.686-1.6867v-9.2774c0-.9311-.755-1.68666-1.686-1.68666zm120.018 0h-43.845c-.931 0-1.687.75556-1.687 1.68666v9.2774c0 .9319.756 1.6867 1.687 1.6867h14.334v56.5079c0 .931.754 1.6866 1.686 1.6866h11.804c.932 0 1.686-.7556 1.686-1.6866v-56.5079h14.335c.931 0 1.686-.7548 1.686-1.6867v-9.2774c0-.9311-.755-1.68666-1.686-1.68666zm-178.486 0h-10.118c-.933 0-1.686.75397-1.686 1.68666v43.4087l-20.131-43.1486c-.553-1.18721-1.746-1.94676-3.055-1.94676h-10.541c-1.862 0-3.372 1.51113-3.372 3.37332v65.78534c0 .9294.756 1.6866 1.686 1.6866h10.118c.933 0 1.686-.7572 1.686-1.6866v-43.412l20.131 43.1526c.556 1.1857 1.745 1.946 3.057 1.946h10.538c1.863 0 3.374-1.5111 3.374-3.3741v-65.7845c0-.93269-.755-1.68666-1.687-1.68666zm-193.3704 42.56216c0 14.8441-12.0299 26.8773-26.87 26.8773-14.84 0-26.86991-12.0332-26.86991-26.8773v-31.8358c0-1.3923 1.05766-2.5372 2.41364-2.6744l48.36627-4.83742c.0893-.00957.1802-.01436.2736-.01436 1.4836 0 2.6864 1.20396 2.6864 2.68797zm-1.344-46.1884c-.2712 0-.5384.0143613-.8024.0398926 0 0-51.05271 5.1062474-51.05271 5.1070474-4.07513.40292-7.25849 3.84006-7.25849 8.02316v33.0183c0 18.5549 15.037 33.5968 33.5876 33.5968 18.5491 0 33.5877-15.0419 33.5877-33.5968v-38.12531c0-4.45361-3.6101-8.06309-8.0617-8.06309zm93.2204 3.62624h-11.804c-.933 0-1.686.75397-1.686 1.68666v45.543c0 7.2668-3.413 10.9649-10.118 10.9649s-10.118-3.6981-10.118-10.9649v-45.543c0-.93269-.757-1.68666-1.687-1.68666h-11.804c-.93 0-1.686.75397-1.686 1.68666v45.543c0 16.7692 8.53 25.3023 25.295 25.3023 16.764 0 25.294-8.5331 25.294-25.3023v-45.543c0-.93269-.753-1.68666-1.686-1.68666zm-104.6402 13.27946c-.0917 0-.1818.004-.2704.0135l-28.2068 2.8213c-1.3607.1324-2.4232 1.2797-2.4232 2.6752v23.7727c0 9.2775 7.5185 16.798 16.7942 16.798 9.275 0 16.7935-7.5205 16.7935-16.798v-26.5948c0-1.4848-1.2029-2.6879-2.6873-2.6879zm140.6322 15.3961h-17.707c-.929 0-1.686.7532-1.686 1.6867v9.2774c0 .9295.757 1.6867 1.686 1.6867h17.707c.929 0 1.686-.7572 1.686-1.6867v-9.2774c0-.9335-.757-1.6867-1.686-1.6867z" fill="#fff" fill-rule="evenodd"/></svg>